# xmcd CD database file
#
# Track frame offsets:
#	150
#	15525
#	31950
#	55902
#	70855
#	91707
#	109557
#	129627
#	146105
#	164540
#	182097
#	200992
#	218925
#
# Disc length: 3275 seconds
#
# Revision: 0
# Processed by: cddbd v1.5.1PL2 Copyright (c) Steve Scherf et al.
# Submitted via: CDex 1.51
#
DISCID=bd0cc90d
DTITLE=brownsugr - SOUL ESSENTIALS 9
DYEAR=2005
DGENRE=R&B
TTITLE0=Gotta Roll
TTITLE1=Up Up
TTITLE2=Be With You feat. Don Dada
TTITLE3=This Burning Love I Have(Jazz Piano Mix)
TTITLE4=Bus Stop
TTITLE5=Medicine
TTITLE6=Confusion
TTITLE7=Change The Game
TTITLE8=You Got It
TTITLE9=Sweet Nobember
TTITLE10=Is What It Is
TTITLE11=So High
TTITLE12=My Life(T.C.'s K.W. Remix)
EXTD=YEAR: 2005
EXTT0=
EXTT1=
EXTT2=
EXTT3=
EXTT4=
EXTT5=
EXTT6=
EXTT7=
EXTT8=
EXTT9=
EXTT10=
EXTT11=
EXTT12=
PLAYORDER=
